<?xml version="1.0" standalone="no"?>
<!DOCTYPE svg PUBLIC "-//W3C//DTD SVG 20010904//EN"
 "http://www.w3.org/TR/2001/REC-SVG-20010904/DTD/svg10.dtd">
<svg version="1.0" xmlns="http://www.w3.org/2000/svg"
 width="840.000000pt" height="840.000000pt" viewBox="0 0 840.000000 840.000000"
 preserveAspectRatio="xMidYMid meet">
<metadata>
Created by potrace 1.14, written by Peter Selinger 2001-2017
</metadata>
<g transform="translate(0.000000,840.000000) scale(0.100000,-0.100000)"
fill="#000000" stroke="none">
<path d="M4059 8396 c-2 -2 -33 -7 -69 -10 -36 -3 -90 -10 -120 -15 -30 -5
-58 -7 -62 -5 -4 2 -9 0 -13 -6 -4 -6 -10 -8 -15 -5 -4 2 -29 -2 -54 -9 -26
-8 -49 -14 -51 -14 -15 -1 -78 -16 -140 -34 -38 -11 -77 -22 -85 -23 -8 -2
-16 -4 -17 -5 -2 -2 -6 -3 -10 -5 -5 -1 -17 -5 -28 -9 -11 -4 -33 -12 -50 -18
-16 -5 -39 -14 -50 -19 -11 -5 -45 -18 -75 -29 -62 -24 -342 -160 -350 -171
-3 -3 -20 -14 -38 -23 -43 -22 -173 -106 -190 -123 -7 -7 -19 -13 -27 -13 -7
0 -15 -3 -17 -7 -1 -5 -55 -47 -118 -95 -237 -178 -498 -418 -645 -592 -28
-32 -55 -64 -61 -70 -7 -7 -48 -61 -93 -122 -45 -60 -85 -113 -89 -119 -4 -5
-30 -44 -56 -85 -26 -41 -56 -86 -65 -100 -10 -14 -29 -46 -43 -71 -47 -83
-53 -94 -59 -99 -3 -3 -27 -49 -54 -103 -26 -54 -52 -100 -57 -103 -4 -3 -8
-13 -8 -23 0 -10 -7 -24 -15 -31 -8 -6 -14 -15 -13 -18 1 -4 -19 -51 -45 -106
-26 -54 -47 -100 -47 -102 0 -2 -13 -33 -30 -69 -17 -36 -30 -69 -30 -73 -1
-4 -9 -25 -20 -47 -11 -22 -19 -44 -20 -48 0 -5 -6 -23 -14 -40 -49 -107 -233
-661 -251 -757 -2 -8 -4 -15 -5 -15 -1 0 -3 -7 -5 -15 -1 -8 -8 -35 -15 -60
-7 -25 -14 -54 -17 -65 -8 -38 -11 -50 -13 -50 -2 0 -5 -14 -13 -55 -3 -14
-13 -54 -22 -90 -9 -36 -19 -77 -21 -93 -2 -15 -6 -32 -9 -38 -4 -5 -8 -24
-10 -42 -4 -30 -7 -45 -20 -107 -6 -26 -12 -54 -20 -105 -3 -16 -7 -41 -10
-55 -3 -14 -10 -52 -15 -85 -5 -33 -11 -69 -13 -80 -3 -11 -8 -42 -11 -70 -8
-56 -11 -80 -22 -145 -4 -25 -8 -56 -9 -70 -1 -14 -5 -47 -9 -75 -3 -27 -9
-77 -12 -110 -4 -33 -8 -73 -10 -90 -2 -16 -6 -64 -9 -105 -3 -41 -7 -97 -10
-125 -15 -156 -20 -331 -19 -675 0 -384 5 -509 29 -745 3 -27 7 -72 10 -100 3
-27 7 -66 10 -85 3 -19 8 -57 11 -85 4 -27 7 -57 9 -65 1 -8 5 -35 9 -60 10
-63 14 -85 16 -85 1 0 3 -16 5 -35 3 -19 9 -53 14 -75 5 -22 19 -83 31 -135
12 -52 31 -126 42 -165 11 -38 21 -74 23 -80 4 -17 16 -49 26 -67 5 -10 9 -25
9 -33 0 -28 110 -260 154 -325 87 -128 142 -175 286 -240 35 -16 165 -4 220
20 83 36 135 77 297 230 157 149 249 208 321 206 23 0 42 2 42 6 0 6 8 5 70
-7 90 -18 198 -106 305 -250 16 -22 33 -41 37 -43 4 -2 8 -10 8 -17 0 -7 3
-15 8 -17 4 -2 32 -32 62 -68 93 -110 150 -157 244 -200 67 -30 87 -34 191
-34 183 0 319 87 504 324 36 47 69 87 73 88 5 2 8 8 8 14 0 5 6 15 13 22 6 7
35 39 62 71 28 33 58 66 69 75 10 8 23 20 30 26 26 25 96 63 132 73 67 18 87
18 148 4 104 -24 160 -66 386 -293 91 -91 182 -179 202 -196 45 -38 168 -117
168 -108 0 4 6 2 13 -3 11 -10 72 -32 89 -34 4 0 22 -5 40 -10 83 -25 225 -5
333 46 124 60 216 155 385 395 67 95 155 181 216 211 86 41 233 28 364 -32
133 -61 310 -171 358 -221 9 -10 20 -18 24 -18 4 0 24 -16 45 -35 45 -43 177
-108 252 -125 68 -16 145 -16 212 0 65 15 168 64 203 97 14 12 27 23 30 23 3
0 28 25 57 55 68 72 144 182 194 281 22 43 44 82 48 85 5 3 8 8 6 10 -1 2 5
20 14 39 29 65 87 220 87 233 0 7 5 18 12 25 7 7 9 12 6 12 -4 0 4 30 16 67
13 38 24 71 25 76 0 4 1 8 2 10 0 1 2 9 4 17 1 8 11 44 20 80 9 36 18 72 20
80 2 8 11 49 20 90 9 41 19 91 22 110 7 54 11 75 13 75 2 0 4 9 5 20 2 11 6
40 9 64 3 23 8 46 10 50 3 4 7 35 11 70 4 34 8 72 11 84 2 12 6 47 9 77 2 30
5 55 6 55 0 0 2 11 4 25 22 222 25 255 29 352 2 47 6 90 9 95 6 11 1 820 -6
913 -3 41 -9 113 -12 159 -3 47 -8 103 -11 125 -3 23 -7 64 -9 91 -3 28 -7 64
-9 80 -2 17 -6 55 -10 85 -11 100 -13 113 -41 285 -3 23 -12 75 -20 120 -11
65 -24 132 -35 180 -6 28 -13 61 -15 75 -3 14 -6 32 -8 40 -33 132 -65 275
-72 315 -2 11 -4 20 -5 20 -1 0 -67 243 -75 278 -2 9 -6 21 -9 25 -3 5 -7 19
-9 33 -3 13 -22 74 -42 134 -20 61 -37 115 -38 120 -2 6 -8 24 -14 40 -6 17
-25 68 -43 115 -32 89 -35 95 -69 172 -12 26 -21 50 -21 52 0 7 -60 137 -71
156 -5 8 -12 22 -15 30 -25 60 -121 238 -191 355 -72 119 -222 341 -257 382
-6 7 -15 18 -21 25 -5 7 -32 40 -60 73 -27 33 -61 73 -75 90 -14 16 -83 89
-155 161 -124 124 -170 166 -314 287 -12 9 -24 17 -27 17 -5 0 -13 6 -56 44
-15 14 -41 33 -58 42 -16 10 -30 22 -30 26 0 4 -7 8 -15 8 -8 0 -15 5 -15 10
0 6 -6 10 -13 10 -7 0 -23 9 -35 20 -12 11 -25 20 -31 20 -5 0 -11 3 -13 8 -4
10 -137 92 -149 92 -5 0 -9 3 -9 8 0 4 -30 23 -68 42 -37 19 -69 37 -72 40 -7
8 -258 130 -266 130 -4 0 -26 9 -48 19 -40 19 -236 89 -266 96 -8 2 -42 11
-75 20 -61 17 -156 39 -210 49 -16 3 -41 7 -55 10 -65 13 -183 25 -191 20 -5
-3 -9 -1 -9 4 0 8 -453 16 -461 8z"/>
</g>
</svg>
